# xmcd
#
# Track frame offsets:
#	150
#	22459
#	39050
#	59061
#	80619
#	108105
#	132168
#	152636
#	191697
#	209418
#	248755
#	267524
#	304296
#
# Disc length: 4646 seconds
#
# Revision: 0
# Processed by: cddbd v1.5PL3 Copyright (c) Steve Scherf et al.
# Submitted via: dBpowerAMP V4.0
#
DISCID=b912240d
DTITLE=Various Artist - 123
DYEAR=1900
DGENRE=123
TTITLE0=123 - 123
TTITLE1=1 - 
TTITLE2=23 - 
TTITLE3=3 - 
TTITLE4=a - 
TTITLE5=f - 
TTITLE6=s - 
TTITLE7=d8 - 
TTITLE8=3 - 
TTITLE9=5 - 
TTITLE10=6 - 
TTITLE11=7 - 
TTITLE12=8 - 
EXTD=123
EXTT0=
EXTT1=
EXTT2=
EXTT3=
EXTT4=
EXTT5=
EXTT6=
EXTT7=
EXTT8=
EXTT9=
EXTT10=
EXTT11=
EXTT12=
PLAYORDER=
